<?xml version="1.0" standalone="no"?>
<!DOCTYPE svg PUBLIC "-//W3C//DTD SVG 20010904//EN"
 "http://www.w3.org/TR/2001/REC-SVG-20010904/DTD/svg10.dtd">
<svg version="1.0" xmlns="http://www.w3.org/2000/svg"
 width="754.000000pt" height="754.000000pt" viewBox="0 0 754.000000 754.000000"
 preserveAspectRatio="xMidYMid meet">
<metadata>
Created by potrace 1.14, written by Peter Selinger 2001-2017
</metadata>
<g transform="translate(0.000000,754.000000) scale(0.100000,-0.100000)"
fill="#000000" stroke="none">
<path d="M4840 7511 c-93 -20 -187 -54 -267 -94 l-51 -26 -59 20 c-188 65
-397 99 -638 104 -266 5 -451 -22 -707 -106 -323 -106 -576 -251 -785 -453
-57 -54 -105 -97 -107 -95 -1 2 -27 51 -57 109 -68 132 -149 220 -220 238 -47
12 -97 4 -125 -19 -8 -6 -14 -9 -14 -6 0 3 -15 -8 -34 -26 -93 -89 -167 -234
-216 -425 -15 -59 -30 -253 -23 -297 l6 -36 54 53 c30 29 108 118 172 198 65
80 127 153 138 162 19 17 20 17 45 -10 14 -15 44 -53 66 -85 l41 -59 -33 -46
c-18 -26 -48 -74 -66 -107 -18 -33 -36 -64 -40 -70 -11 -14 -123 -238 -313
-625 -214 -434 -445 -846 -599 -1067 -182 -260 -255 -379 -324 -533 -108 -238
-139 -364 -154 -624 -10 -161 -9 -181 10 -277 59 -292 235 -530 466 -635 178
-80 472 -146 774 -175 133 -12 528 -7 695 11 49 5 91 8 92 7 1 -2 -9 -34 -22
-72 -13 -39 -43 -129 -66 -202 -42 -128 -42 -133 -25 -152 26 -29 81 -44 336
-96 124 -25 237 -48 253 -52 25 -5 35 -26 27 -58 -2 -5 -2 -18 -2 -27 1 -21
-14 -24 -22 -5 -3 6 -3 2 -1 -10 5 -18 -3 -25 -49 -47 -30 -14 -62 -26 -71
-26 -8 0 -18 -6 -21 -14 -6 -17 -44 -29 -44 -14 0 7 -5 7 -12 1 -7 -5 -20 -9
-28 -8 -8 1 -23 -3 -34 -8 -28 -14 -66 -16 -66 -3 0 6 -6 3 -13 -6 -9 -11 -18
-14 -28 -7 -20 12 -57 11 -61 -2 -2 -6 -25 -12 -51 -14 -26 -1 -50 -5 -54 -8
-3 -4 -13 -1 -21 6 -13 9 -14 9 -8 0 10 -18 1 -16 -18 3 -15 14 -16 13 -17
-13 -1 -26 -1 -26 -7 -5 -4 13 -11 23 -17 23 -5 0 -9 7 -7 16 2 8 -1 12 -7 8
-7 -3 -8 0 -5 9 3 9 1 16 -6 16 -6 0 -9 4 -5 9 3 5 1 12 -5 16 -5 3 -11 30
-11 58 l-2 52 -8 -45 c-4 -25 -8 -77 -8 -116 l-1 -71 -67 -6 c-38 -4 -79 -9
-93 -11 -14 -2 -47 -6 -75 -10 -58 -8 -243 -45 -265 -54 -8 -3 -17 -6 -20 -7
-3 0 -27 -11 -54 -23 -27 -12 -51 -20 -54 -17 -3 2 -17 -4 -32 -15 -16 -11
-34 -20 -42 -20 -27 -1 -302 -196 -293 -210 5 -9 -44 -57 -53 -51 -4 2 -12 -6
-18 -17 -6 -12 -23 -31 -37 -43 -15 -11 -25 -24 -22 -28 2 -5 -4 -16 -14 -25
-48 -43 -92 -196 -92 -321 0 -215 103 -371 295 -446 179 -69 475 -98 813 -79
526 29 1109 107 1278 172 135 51 255 242 255 407 0 31 4 41 16 41 11 0 14 -6
9 -21 -12 -36 -8 -204 5 -260 18 -77 64 -174 110 -235 112 -145 433 -286 767
-338 312 -49 859 -32 1117 34 188 48 297 153 358 343 28 87 28 262 -1 372 -22
82 -105 264 -138 300 -10 11 -38 43 -63 70 -58 64 -152 144 -210 178 -91 54
-267 134 -320 147 -30 7 -59 16 -65 20 -14 11 -136 43 -159 42 -11 -1 -28 4
-39 9 -14 8 -17 8 -13 0 4 -6 3 -11 -3 -11 -5 0 -13 5 -16 10 -3 6 -17 10 -29
10 -24 0 -24 0 -18 108 7 153 -16 272 -102 534 l-71 217 60 5 c33 3 125 10
205 16 150 12 395 45 585 80 548 101 878 257 1091 516 131 159 192 390 161
604 -51 339 -104 514 -243 792 -78 157 -138 250 -290 448 -288 375 -385 533
-652 1065 -278 552 -447 805 -710 1056 l-100 97 56 -5 c202 -16 329 -57 655
-213 138 -66 254 -120 258 -120 13 0 -23 114 -58 184 -54 107 -127 210 -212
299 -125 131 -243 204 -408 253 -121 36 -337 43 -463 15z m-2472 -1350 c34
-27 87 -65 118 -83 l56 -33 -5 -155 c-3 -97 -13 -195 -26 -261 -23 -117 -49
-200 -50 -161 -1 32 -26 87 -50 111 -69 69 -202 -30 -286 -212 -98 -213 -83
-408 36 -457 l30 -13 -63 -64 c-80 -82 -165 -143 -259 -187 -119 -55 -124 -55
-153 1 -67 134 -61 316 18 625 46 178 86 288 156 436 76 158 150 271 242 368
62 65 148 133 169 134 3 0 33 -22 67 -49z m1757 -40 c49 -10 137 -160 161
-272 20 -97 24 -133 24 -216 0 -76 -3 -94 -14 -90 -8 3 -2 -15 15 -46 16 -29
29 -56 28 -62 0 -5 -9 8 -21 30 -45 89 -134 154 -209 155 -19 0 -58 -12 -87
-26 -181 -90 -240 -427 -108 -620 14 -21 23 -40 21 -44 -2 -4 16 -26 40 -50
25 -24 45 -48 45 -53 0 -5 -19 -27 -42 -49 l-43 -40 43 21 c23 12 42 19 42 16
0 -11 -140 -75 -197 -89 -78 -20 -213 -20 -311 0 -80 16 -205 64 -238 90 -10
8 5 3 34 -11 28 -14 52 -24 52 -22 0 2 -27 23 -59 46 -155 108 -233 260 -248
483 -14 218 61 488 174 626 20 24 45 47 57 52 11 4 33 21 47 37 23 26 46 34
180 66 264 63 510 90 614 68z m-1795 -660 c15 -29 12 -73 -6 -99 -23 -33 -75
-27 -88 9 -11 31 -2 71 20 93 21 22 61 20 74 -3z m1760 -21 c27 -27 25 -73 -3
-106 -64 -75 -158 22 -96 100 25 32 70 35 99 6z m-129 -527 c13 -16 12 -17 -3
-4 -17 13 -22 21 -14 21 2 0 10 -8 17 -17z m684 -299 c19 -9 42 -28 51 -42 17
-27 17 -27 -3 -9 l-21 18 14 -73 c51 -259 52 -286 12 -402 -35 -100 -95 -180
-155 -205 -32 -13 -44 -31 -21 -31 6 0 9 -2 6 -5 -2 -3 -33 5 -67 16 -38 13
-58 24 -51 29 8 5 9 10 2 14 -6 3 -16 29 -23 56 -8 32 -16 46 -21 38 -12 -20
-10 -6 27 158 40 178 96 353 127 396 11 17 35 36 52 44 39 17 32 17 71 -2z
m-3387 -258 c2 -139 0 -174 -18 -240 -22 -84 -57 -191 -72 -218 -6 -13 -5 -18
4 -18 14 0 -59 -51 -143 -101 l-51 -30 7 53 c15 119 56 321 90 443 45 166 86
252 128 270 17 7 36 11 41 9 7 -3 12 -65 14 -168z"/>
<path d="M1336 1264 c-5 -14 -4 -15 9 -4 17 14 19 20 6 20 -5 0 -12 -7 -15
-16z"/>
</g>
</svg>
